# MagicaVoxel @ Ephtracy

# group
o 

# material
mtllib grass_slope.mtl
usemtl palette

# normals
vn -1 0 0
vn 1 0 0
vn 0 0 1
vn 0 0 -1
vn 0 -1 0
vn 0 1 0

# texcoords
vt 0.373047 0.5
vt 0.650391 0.5
vt 0.654297 0.5
vt 0.791016 0.5
vt 0.794922 0.5
vt 0.896484 0.5

# verts
v -2 0 2
v -2 0 -2
v -2 0.7 2
v -2 0.7 -2
v -1.8 0.7 2
v -1.8 0.7 -2
v -1.8 0.8 2
v -1.8 0.8 -2
v -1.6 0.8 2
v -1.6 0.8 -2
v -1.6 0.9 2
v -1.6 0.9 -2
v -1.4 0.9 2
v -1.4 0.9 -2
v -1.4 1 2
v -1.4 1 -2
v -1.3 1 2
v -1.3 1 -2
v -1.3 1.1 2
v -1.3 1.1 -2
v -1.1 1.1 2
v -1.1 1.1 -2
v -1.1 1.2 2
v -1.1 1.2 -2
v 2 0 2
v 2 0 -2
v 2 1.2 2
v 2 1.2 -2
v -2 0 2
v -2 0.7 2
v -1.8 0.7 2
v -1.8 0.8 2
v -1.6 0.8 2
v -1.6 0.9 2
v -1.4 0.9 2
v -1.4 1 2
v -1.3 1 2
v -1.3 1.1 2
v -1.1 1.1 2
v -1.1 1.2 2
v 2 0 2
v 2 1.2 2
v -2 0 -2
v -2 0.7 -2
v -1.8 0.7 -2
v -1.8 0.8 -2
v -1.6 0.8 -2
v -1.6 0.9 -2
v -1.4 0.9 -2
v -1.4 1 -2
v -1.3 1 -2
v -1.3 1.1 -2
v -1.1 1.1 -2
v -1.1 1.2 -2
v 2 0 -2
v 2 1.2 -2
v -2 0 2
v 2 0 2
v -2 0 -2
v 2 0 -2
v -2 0.7 2
v -1.8 0.7 2
v -2 0.7 -2
v -1.8 0.7 -2
v -1.8 0.8 2
v -1.6 0.8 2
v -1.8 0.8 -2
v -1.6 0.8 -2
v -1.6 0.9 2
v -1.4 0.9 2
v -1.6 0.9 -2
v -1.4 0.9 -2
v -1.4 1 2
v -1.3 1 2
v -1.4 1 -2
v -1.3 1 -2
v -1.3 1.1 2
v -1.1 1.1 2
v -1.3 1.1 -2
v -1.1 1.1 -2
v -1.1 1.2 2
v 2 1.2 2
v -1.1 1.2 -2
v 2 1.2 -2

# faces
f 3/5/1 2/5/1 1/5/1
f 4/5/1 2/5/1 3/5/1
f 7/5/1 6/5/1 5/5/1
f 8/5/1 6/5/1 7/5/1
f 11/5/1 10/5/1 9/5/1
f 12/5/1 10/5/1 11/5/1
f 15/5/1 14/5/1 13/5/1
f 16/5/1 14/5/1 15/5/1
f 19/5/1 18/5/1 17/5/1
f 20/5/1 18/5/1 19/5/1
f 23/5/1 22/5/1 21/5/1
f 24/5/1 22/5/1 23/5/1
f 25/5/2 26/5/2 27/5/2
f 27/5/2 26/5/2 28/5/2
f 31/5/3 30/5/3 29/5/3
f 33/5/3 32/5/3 31/5/3
f 35/5/3 34/5/3 33/5/3
f 37/5/3 36/5/3 35/5/3
f 39/5/3 38/5/3 37/5/3
f 41/5/3 31/5/3 29/5/3
f 41/5/3 40/5/3 39/5/3
f 41/5/3 39/5/3 37/5/3
f 41/5/3 37/5/3 35/5/3
f 41/5/3 35/5/3 33/5/3
f 41/5/3 33/5/3 31/5/3
f 42/5/3 40/5/3 41/5/3
f 43/5/4 44/5/4 45/5/4
f 45/5/4 46/5/4 47/5/4
f 47/5/4 48/5/4 49/5/4
f 49/5/4 50/5/4 51/5/4
f 51/5/4 52/5/4 53/5/4
f 43/5/4 45/5/4 55/5/4
f 53/5/4 54/5/4 55/5/4
f 51/5/4 53/5/4 55/5/4
f 49/5/4 51/5/4 55/5/4
f 47/5/4 49/5/4 55/5/4
f 45/5/4 47/5/4 55/5/4
f 55/5/4 54/5/4 56/5/4
f 59/5/5 58/5/5 57/5/5
f 60/5/5 58/5/5 59/5/5
f 61/5/6 62/5/6 63/5/6
f 63/5/6 62/5/6 64/5/6
f 65/5/6 66/5/6 67/5/6
f 67/5/6 66/5/6 68/5/6
f 69/5/6 70/5/6 71/5/6
f 71/5/6 70/5/6 72/5/6
f 73/5/6 74/5/6 75/5/6
f 75/5/6 74/5/6 76/5/6
f 77/5/6 78/5/6 79/5/6
f 79/5/6 78/5/6 80/5/6
f 81/5/6 82/5/6 83/5/6
f 83/5/6 82/5/6 84/5/6
